<svg xmlns="http://www.w3.org/2000/svg" width="1583.195" height="632.684" viewBox="0 0 500 500"><g id="freepik--background-complete--inject-5"><rect x="261.44" y="170.53" width="48.65" height="12.87" style="fill:#fafafa"></rect><path d="M289.52,197s0-.09,0-.24l0-.66c0-.6,0-1.45,0-2.53,0-2.22,0-5.42-.08-9.44l.15.15-48.65.09.25-.24h0v3.27c0,1.09,0,2.17,0,3.25V197l-.24-.25,34.67.11,10.23.07,2.77,0,.72,0a1.33,1.33,0,0,1,.26,0h-.22l-.7,0-2.71,0-10.18.07-34.84.11h-.24V197c0-2.07,0-4.19,0-6.33v-6.52h0l.25-.25,48.65.09h.15v.16c0,4.06-.06,7.29-.08,9.53,0,1.07,0,1.9,0,2.5,0,.26,0,.47,0,.63A.85.85,0,0,1,289.52,197Z" style="fill:#e0e0e0"></path><path d="M460.61,125.23s0-.09,0-.24,0-.39,0-.66c0-.6,0-1.45,0-2.53,0-2.22-.05-5.42-.08-9.44l.15.15L412,112.6c.11-.11-.25.25.25-.24h0v12.87L412,125l34.67.11,10.23.07,2.77,0,.72,0,.26,0h-.23l-.69,0-2.71,0-10.18.07-34.84.11h-.24V112.36h0l.25-.25,48.65.09h.15v.16c0,4.06-.06,7.29-.08,9.53,0,1.07,0,1.9,0,2.5V125A.85.85,0,0,1,460.61,125.23Z" style="fill:#e0e0e0"></path><path d="M467.21,112.35a.64.64,0,0,1,0-.24c0-.18,0-.41,0-.68,0-.64,0-1.5-.05-2.58,0-2.26-.05-5.45-.09-9.37l.18.18L438,99.73c-.23.22.3-.3.24-.24h0v6.6c0,2.16,0,4.24,0,6.24l-.24-.23,20.92.11,6.09.07,1.64,0,.59,0a3.43,3.43,0,0,1-.53,0l-1.6,0-6,.07-21.07.11h-.23v-.24c0-2,0-4.08,0-6.24v-6.6h0c-.06.05.47-.48.25-.25l29.23.07h.18v.17c0,4-.07,7.19-.09,9.48,0,1.07,0,1.91-.05,2.54A8.46,8.46,0,0,1,467.21,112.35Z" style="fill:#e0e0e0"></path><rect x="285.24" y="324.72" width="48.65" height="12.87" style="fill:#e0e0e0"></rect><rect x="320.22" y="298.3" width="48.65" height="12.87" style="fill:#fafafa"></rect><path d="M348.3,324.72a1,1,0,0,1,0-.23v-.66c0-.61,0-1.45,0-2.53,0-2.23-.05-5.42-.08-9.45l.15.15-48.65.1c.11-.11-.25.25.24-.25h0v12.86l-.24-.24,34.67.11,10.23.07,2.77,0,.72,0h.26l-.23,0h-.69l-2.71,0-10.18.07-34.84.11h-.25V311.86h0c.49-.49.14-.13.25-.25l48.65.1h.15v.15c0,4.07-.06,7.29-.08,9.54,0,1.06,0,1.9,0,2.5,0,.26,0,.46,0,.63A1.23,1.23,0,0,1,348.3,324.72Z" style="fill:#e0e0e0"></path><rect x="59.19" y="105.96" width="48.65" height="12.87" style="fill:#e0e0e0"></rect><rect x="94.17" y="79.53" width="48.65" height="12.87" style="fill:#fafafa"></rect><path d="M122.25,106a1.17,1.17,0,0,1,0-.23v-.66c0-.61,0-1.45,0-2.54,0-2.22-.05-5.41-.08-9.44l.15.15-48.65.1c.11-.11-.25.24.24-.25h0V106l-.25-.24,34.68.11,10.23.07,2.77,0H122l.26,0-.23,0h-.69l-2.72,0-10.18.07-34.84.11h-.24V93.11h0l.25-.25,48.65.1h.15v.15c0,4.06-.07,7.29-.09,9.53,0,1.07,0,1.9,0,2.5,0,.26,0,.47,0,.64A1.39,1.39,0,0,1,122.25,106Z" style="fill:#e0e0e0"></path><polygon points="85.63 323.22 97.66 325.19 97.66 344.57 85.63 346.9 85.63 323.22" style="fill:#f5f5f5"></polygon><rect x="97.23" y="322.86" width="3.05" height="23.69" rx="1.33" style="fill:#f5f5f5"></rect><path d="M99.66,329.22h1.09a4,4,0,0,1,4,4v1.19a4,4,0,0,1-4,4H99.66a0,0,0,0,1,0,0v-9.15A0,0,0,0,1,99.66,329.22Z" style="fill:#f5f5f5"></path><path d="M97.14,344.65c-.17,0-.3-4.35-.3-9.71s.13-9.71.3-9.71a80.24,80.24,0,0,1,.3,9.71A80.24,80.24,0,0,1,97.14,344.65Z" style="fill:#e0e0e0"></path><path d="M100.11,344.78a81.47,81.47,0,0,1-.29-9.71,81.61,81.61,0,0,1,.29-9.71c.17,0,.3,4.35.3,9.71S100.28,344.78,100.11,344.78Z" style="fill:#e0e0e0"></path><path d="M42.48,398.85V300.46a21.58,21.58,0,0,1,21.57-21.58h0a21.58,21.58,0,0,1,21.58,21.58v98.39Z" style="fill:#f5f5f5"></path><rect x="35.68" y="302.81" width="57.18" height="11.93" rx="5.19" style="fill:#f5f5f5"></rect><path d="M57.39,280.44l0-.85a6.19,6.19,0,0,1,5.81-6.54l1.68-.08a6.18,6.18,0,0,1,6.43,5.92l.08,1.47Z" style="fill:#f5f5f5"></path><path d="M63.73,270.57H65A1.44,1.44,0,0,1,66.39,272v2a0,0,0,0,1,0,0H62.3a0,0,0,0,1,0,0v-2A1.44,1.44,0,0,1,63.73,270.57Z" style="fill:#f5f5f5"></path><path d="M85.63,302.62c0,.17-9.64.3-21.53.3s-21.54-.13-21.54-.3,9.64-.3,21.54-.3S85.63,302.46,85.63,302.62Z" style="fill:#e0e0e0"></path><path d="M58,281.24c0,.09-1.25.61-3.19,1.66a21.72,21.72,0,0,0-6.62,5.33,19,19,0,0,0-3.54,7.7c-.46,2.15-.37,3.53-.47,3.54a2.66,2.66,0,0,1-.13-1,13.06,13.06,0,0,1,.18-2.65,17.83,17.83,0,0,1,3.49-8,20,20,0,0,1,6.9-5.34,24.24,24.24,0,0,1,2.44-1A2.89,2.89,0,0,1,58,281.24Z" style="fill:#fafafa"></path><path d="M71.35,280c-.06.21-3.12-1-7-1.08s-7,1.23-7,1a6.42,6.42,0,0,1,2-.85,16.53,16.53,0,0,1,5.09-.77,17.52,17.52,0,0,1,5.09.84A6.15,6.15,0,0,1,71.35,280Z" style="fill:#e0e0e0"></path><path d="M66.82,273.35c-.06.16-1.06-.14-2.31-.16s-2.26.21-2.32,0,1-.68,2.33-.64S66.9,273.21,66.82,273.35Z" style="fill:#e0e0e0"></path><circle cx="64.44" cy="337.65" r="14.91" transform="translate(-224.09 150.81) rotate(-46.27)" style="fill:#e0e0e0"></circle><circle cx="64.44" cy="335.06" r="14.91" transform="translate(-275.39 365.58) rotate(-84.25)" style="fill:#f5f5f5"></circle><path d="M79.35,335.06a24.48,24.48,0,0,0-.58-3.61,14.82,14.82,0,0,0-5.43-8.07,14.64,14.64,0,0,0-13.88-2.06,13.69,13.69,0,0,0-3.7,2,14,14,0,0,0-3.09,3.11,14.6,14.6,0,0,0,0,17.28,14,14,0,0,0,3.09,3.11,13.69,13.69,0,0,0,3.7,2,14.64,14.64,0,0,0,13.88-2.06,14.82,14.82,0,0,0,5.43-8.07,24.48,24.48,0,0,0,.58-3.61,5.34,5.34,0,0,1,0,.95,7.51,7.51,0,0,1-.09,1.16,11.06,11.06,0,0,1-.28,1.56A15,15,0,0,1,67.24,350a15.16,15.16,0,0,1-8-.63A15,15,0,0,1,52.2,344a15.12,15.12,0,0,1,0-18,14.46,14.46,0,0,1,3.22-3.22,14.17,14.17,0,0,1,3.85-2.05,15.16,15.16,0,0,1,8-.63A15,15,0,0,1,79,331.39a11.06,11.06,0,0,1,.28,1.56,7.51,7.51,0,0,1,.09,1.16A5.34,5.34,0,0,1,79.35,335.06Z" style="fill:#e0e0e0"></path><path d="M70.56,331.92a6.87,6.87,0,1,1-9.25-3A6.88,6.88,0,0,1,70.56,331.92Z" style="fill:#e0e0e0"></path><path d="M69.14,335.06a4.7,4.7,0,1,1-4.7-4.7A4.7,4.7,0,0,1,69.14,335.06Z" style="fill:#f5f5f5"></path><path d="M69.14,335.06s0-.42-.26-1.12a4.66,4.66,0,0,0-1.72-2.45,4.5,4.5,0,0,0-4.22-.58,4.42,4.42,0,0,0,0,8.3,4.5,4.5,0,0,0,4.22-.58,4.69,4.69,0,0,0,1.72-2.45c.21-.7.21-1.12.26-1.12a2.37,2.37,0,0,1,0,1.17A4.67,4.67,0,0,1,67.42,339a4.9,4.9,0,0,1-4.67.77,5,5,0,0,1,0-9.34,4.9,4.9,0,0,1,4.67.77,4.66,4.66,0,0,1,1.69,2.72A2.4,2.4,0,0,1,69.14,335.06Z" style="fill:#e0e0e0"></path><path d="M85.63,314.9c0,.16-9.74.3-21.75.3s-21.76-.14-21.76-.3,9.74-.3,21.76-.3S85.63,314.73,85.63,314.9Z" style="fill:#e0e0e0"></path><path d="M42.12,304.16c0,.1-.57.1-1.41.38A5.31,5.31,0,0,0,37,309.62a14.09,14.09,0,0,1,0,1.46c-.06,0-.38-.49-.47-1.44a5.09,5.09,0,0,1,4.07-5.51C41.54,303.94,42.13,304.09,42.12,304.16Z" style="fill:#fafafa"></path><path d="M57.54,323.77c.05.1-1,.61-2.33,1.84a12.73,12.73,0,0,0-3.8,12.86c.46,1.76,1.05,2.76,1,2.81s-.21-.21-.48-.66a10.87,10.87,0,0,1-.88-2,12.29,12.29,0,0,1,3.93-13.3,9.71,9.71,0,0,1,1.85-1.22A2.1,2.1,0,0,1,57.54,323.77Z" style="fill:#fafafa"></path><path d="M85.63,355.48c-.16,0-.3-9.14-.3-20.42s.14-20.42.3-20.42.3,9.14.3,20.42S85.8,355.48,85.63,355.48Z" style="fill:#e0e0e0"></path><path d="M28.47,410.92v-4.77a3.58,3.58,0,0,1,3.58-3.58h0V401a6.81,6.81,0,0,1,6.81-6.81H87.22c3.77,0,6.76,4.25,6.76,8H95.7c2,0,3.58.4,3.58,2.38v6.3Z" style="fill:#e0e0e0"></path><path d="M95.7,402.24c0,.17-14.29.3-31.91.3s-31.92-.13-31.92-.3,14.29-.3,31.92-.3S95.7,402.08,95.7,402.24Z" style="fill:#f5f5f5"></path><polygon points="42.56 346.37 30.54 344.4 30.54 325.02 42.56 322.69 42.56 346.37" style="fill:#f5f5f5"></polygon><rect x="27.92" y="323.04" width="3.05" height="23.69" rx="1.33" transform="translate(58.89 669.77) rotate(-180)" style="fill:#f5f5f5"></rect><path d="M23.47,331.22h1.09a4,4,0,0,1,4,4v1.19a4,4,0,0,1-4,4H23.47a0,0,0,0,1,0,0v-9.15A0,0,0,0,1,23.47,331.22Z" transform="translate(52.01 671.58) rotate(-180)" style="fill:#f5f5f5"></path><path d="M31.06,324.94a80.24,80.24,0,0,1,.3,9.71,80.24,80.24,0,0,1-.3,9.71c-.17,0-.3-4.35-.3-9.71S30.89,324.94,31.06,324.94Z" style="fill:#e0e0e0"></path><path d="M28.08,324.81c.17,0,.3,4.35.3,9.71s-.13,9.71-.3,9.71a80.24,80.24,0,0,1-.3-9.71A80.24,80.24,0,0,1,28.08,324.81Z" style="fill:#e0e0e0"></path><path d="M42.57,367.52c-.17,0-.3-11.55-.3-25.8s.13-25.81.3-25.81.3,11.55.3,25.81S42.73,367.52,42.57,367.52Z" style="fill:#e0e0e0"></path><path d="M134.79,456c.05.14-12.36,5-27.71,10.78s-27.85,10.42-27.9,10.28,12.35-5,27.71-10.77S134.74,455.91,134.79,456Z" style="fill:#e0e0e0"></path><path d="M284.26,458.64c.06.13-12.43,5.82-27.89,12.7s-28.05,12.36-28.11,12.23,12.43-5.82,27.9-12.7S284.2,458.51,284.26,458.64Z" style="fill:#e0e0e0"></path><path d="M451.69,453.25a2.27,2.27,0,0,1-.45.44l-1.35,1.19c-1.17,1-2.91,2.46-5.08,4.21-4.34,3.5-10.49,8.14-17.56,12.89s-13.71,8.66-18.59,11.35c-2.45,1.34-4.44,2.4-5.83,3.1l-1.61.79a2.48,2.48,0,0,1-.58.25,3.87,3.87,0,0,1,.53-.34l1.56-.88c1.37-.75,3.33-1.86,5.75-3.24,4.83-2.77,11.42-6.74,18.48-11.47s13.23-9.32,17.62-12.74c2.2-1.71,4-3.1,5.18-4.08l1.42-1.11A3,3,0,0,1,451.69,453.25Z" style="fill:#e0e0e0"></path><path d="M92.41,210.29a2.07,2.07,0,0,1,0-.23l0-.66c0-.61,0-1.45,0-2.54,0-2.22,0-5.41-.08-9.44l.15.15-48.65.1.25-.25h0v3.27c0,1.09,0,2.18,0,3.25v6.33l-.24-.24,34.67.11,10.23.07,2.77,0,.72,0h.26s-.07,0-.22,0h-.7l-2.71,0-10.18.06-34.84.11h-.24v-.24q0-3.1,0-6.33v-6.52h0c.5-.49.14-.14.25-.25l48.65.1h.15v.15c0,4.07-.06,7.29-.08,9.53,0,1.07,0,1.91,0,2.5,0,.26,0,.47,0,.64S92.42,210.3,92.41,210.29Z" style="fill:#e0e0e0"></path><path d="M251.24,78.44a1.35,1.35,0,0,1,0-.24v-.66c0-.6,0-1.45,0-2.53,0-2.22,0-5.42-.08-9.44l.15.15-48.65.09.24-.24h0V78.44l-.24-.24,34.67.11,10.23.06,2.77,0H251l.26,0H251l-.69,0-2.71,0-10.18.07-34.84.11h-.25V65.59h0l.25-.25,48.65.1h.15v.15c0,4.06-.06,7.29-.08,9.53,0,1.07,0,1.9,0,2.5l0,.63A1.66,1.66,0,0,1,251.24,78.44Z" style="fill:#e0e0e0"></path><path d="M257.84,65.57a.77.77,0,0,1,0-.25c0-.18,0-.41,0-.68,0-.63,0-1.49-.05-2.58,0-2.26-.05-5.45-.09-9.36l.18.17-29.23.07c-.23.22.3-.3.24-.24h0v6.61c0,2.15,0,4.24,0,6.24l-.24-.24,20.91.11,6.1.07,1.64,0,.59,0a3.43,3.43,0,0,1-.53,0l-1.6,0-6,.06-21.07.11h-.23v-.23c0-2,0-4.09,0-6.24V52.72h0c-.06,0,.47-.47.25-.25l29.23.07H258v.18c0,4-.07,7.18-.09,9.47,0,1.07,0,1.91-.05,2.54S257.85,65.58,257.84,65.57Z" style="fill:#e0e0e0"></path><path d="M402.91,212.25a1,1,0,0,1,0-.23c0-.17,0-.39,0-.66,0-.61,0-1.45,0-2.53,0-2.23,0-5.42-.09-9.45l.15.15-48.64.1c.1-.11-.25.25.24-.25h0v6.52q0,3.22,0,6.33l-.24-.24,34.67.11,10.24.07,2.76,0,.73,0h.26l-.23,0H402l-2.72,0-10.18.07-34.84.11H354v-6.58c0-1.07,0-2.16,0-3.25V199.4h0l.26-.25,48.64.1h.16v.15c0,4.07-.07,7.29-.09,9.54,0,1.06,0,1.9,0,2.49l0,.64A1.23,1.23,0,0,1,402.91,212.25Z" style="fill:#e0e0e0"></path><path d="M409.5,199.38s0-.09,0-.24,0-.41,0-.69c0-.63,0-1.49,0-2.58,0-2.25-.06-5.44-.1-9.36l.18.18-29.23.07.25-.25h0v3.35c0,1.1,0,2.19,0,3.27v6.24l-.24-.23,20.91.11,6.09.06,1.64,0,.59,0a3.28,3.28,0,0,1-.53,0l-1.59,0-6,.07-21.07.11H380v-.24c0-2,0-4.09,0-6.24v-6.62h0l.25-.25,29.23.07h.18v.18c0,4-.07,7.19-.1,9.47,0,1.07,0,1.92,0,2.54A6.65,6.65,0,0,1,409.5,199.38Z" style="fill:#e0e0e0"></path></g><g id="freepik--Floor--inject-5"><path d="M486.72,428.72c0,.15-106.55.23-238,.19s-238-.19-238-.33,106.53-.23,238-.19S486.72,428.58,486.72,428.72Z" style="fill:#263238"></path><path d="M486.72,411.46c0,.14-106.55.22-238,.18s-238-.18-238-.33,106.53-.23,238-.19S486.72,411.31,486.72,411.46Z" style="fill:#263238"></path><path d="M32,429.28a82.55,82.55,0,0,1-.26-9.19A82.4,82.4,0,0,1,32,410.9a82.4,82.4,0,0,1,.26,9.19A82.55,82.55,0,0,1,32,429.28Z" style="fill:#263238"></path><path d="M86.73,429.28a82.55,82.55,0,0,1-.26-9.19,82.4,82.4,0,0,1,.26-9.19,79.6,79.6,0,0,1,.26,9.19A79.74,79.74,0,0,1,86.73,429.28Z" style="fill:#263238"></path><path d="M141.46,429.28a79.74,79.74,0,0,1-.26-9.19,79.6,79.6,0,0,1,.26-9.19,82.4,82.4,0,0,1,.26,9.19A82.55,82.55,0,0,1,141.46,429.28Z" style="fill:#263238"></path><path d="M196.18,429.28a79.74,79.74,0,0,1-.26-9.19,79.6,79.6,0,0,1,.26-9.19,82.4,82.4,0,0,1,.26,9.19A82.55,82.55,0,0,1,196.18,429.28Z" style="fill:#263238"></path><path d="M250.9,429.28a82.55,82.55,0,0,1-.26-9.19,82.4,82.4,0,0,1,.26-9.19,82.4,82.4,0,0,1,.26,9.19A82.55,82.55,0,0,1,250.9,429.28Z" style="fill:#263238"></path><path d="M305.62,429.28a82.55,82.55,0,0,1-.26-9.19,82.4,82.4,0,0,1,.26-9.19,79.6,79.6,0,0,1,.26,9.19A79.74,79.74,0,0,1,305.62,429.28Z" style="fill:#263238"></path><path d="M367.9,429.28a82.55,82.55,0,0,1-.26-9.19,82.4,82.4,0,0,1,.26-9.19,82.4,82.4,0,0,1,.26,9.19A82.55,82.55,0,0,1,367.9,429.28Z" style="fill:#263238"></path><path d="M430.18,429.28a79.74,79.74,0,0,1-.26-9.19,79.6,79.6,0,0,1,.26-9.19,82.4,82.4,0,0,1,.26,9.19A82.55,82.55,0,0,1,430.18,429.28Z" style="fill:#263238"></path></g><g id="freepik--Plant--inject-5"><path d="M353.56,376.31c-1.71,2.3-4.88,1.44-6.32,0s-2-3.56-2.53-5.55c-1.18-4.56-2.37-9.33-1.28-13.91a7.74,7.74,0,0,1,1.87-3.72,4,4,0,0,1,3.85-1.17c1.6.47,2.56,2.07,3.24,3.59a33,33,0,0,1,2.89,14.27,11.42,11.42,0,0,1-1.72,6.52" style="fill:#7460e6"></path><g style="opacity:0.2"><path d="M353.56,376.31c-1.71,2.3-4.88,1.44-6.32,0s-2-3.56-2.53-5.55c-1.18-4.56-2.37-9.33-1.28-13.91a7.74,7.74,0,0,1,1.87-3.72,4,4,0,0,1,3.85-1.17c1.6.47,2.56,2.07,3.24,3.59a33,33,0,0,1,2.89,14.27,11.42,11.42,0,0,1-1.72,6.52"></path></g><path d="M347.09,388a14.23,14.23,0,0,0-8.8-1.31,7.33,7.33,0,0,0-4.41,1.83c-1.12,1.18-1.38,3.29-.16,4.36a4.25,4.25,0,0,0,2.73.77c2.34,0,4.94-.31,6.76,1.14,1.05.83,1.72,2.18,3,2.61a3,3,0,0,0,3.35-1.39,5.1,5.1,0,0,0,.47-3.78A5.77,5.77,0,0,0,347.09,388Z" style="fill:#7460e6"></path><path d="M358,379.8a8.52,8.52,0,0,1-1.12-7.89,15,15,0,0,1,4.83-6.62,25,25,0,0,1,8.45-4.7,9,9,0,0,1,3.77-.54,3.94,3.94,0,0,1,3.09,2c.83,1.69-.06,3.7-1,5.33a64.22,64.22,0,0,1-5.69,8.18c-1.7,2.07-3.63,4.11-6.16,5s-5.11.71-6.39-1.06" style="fill:#7460e6"></path><path d="M352.74,411.69a5.24,5.24,0,0,1-.12-1.07q-.09-1.17-.21-2.91a40.78,40.78,0,0,0-.54-4.29,32.52,32.52,0,0,0-1.42-5.07,18.76,18.76,0,0,0-2.45-4.63,9.53,9.53,0,0,0-3.18-2.78,9.13,9.13,0,0,0-2.71-.93,4.65,4.65,0,0,1-1.06-.18,5.56,5.56,0,0,1,1.08,0,8.44,8.44,0,0,1,2.83.82,9.5,9.5,0,0,1,3.36,2.82,18.21,18.21,0,0,1,2.54,4.71,30.58,30.58,0,0,1,1.41,5.16,35.19,35.19,0,0,1,.45,4.34c.06,1.23.07,2.23.07,2.93A4.74,4.74,0,0,1,352.74,411.69Z" style="fill:#263238"></path><path d="M352.6,409.45a1.91,1.91,0,0,1,0-.5c0-.37,0-.84,0-1.41,0-1.23.08-3,.08-5.2,0-4.39-.22-10.45-.77-17.12s-1.38-12.69-2.15-17c-.18-1.08-.37-2.06-.54-2.91s-.31-1.59-.45-2.19l-.3-1.39a1.75,1.75,0,0,1-.07-.49,2.62,2.62,0,0,1,.16.47c.1.36.22.81.37,1.37s.34,1.32.53,2.18.4,1.82.61,2.9a161.94,161.94,0,0,1,2.28,17c.55,6.69.72,12.77.64,17.16,0,2.2-.13,4-.22,5.21q-.07.85-.12,1.41A2.46,2.46,0,0,1,352.6,409.45Z" style="fill:#263238"></path><path d="M352.87,397.74a9.71,9.71,0,0,1,.05-1.48c.08-.95.25-2.32.56-4a53.44,53.44,0,0,1,1.46-5.8,51.71,51.71,0,0,1,2.62-6.83,37,37,0,0,1,7.45-11,17.11,17.11,0,0,1,1.73-1.52c.26-.21.49-.42.73-.59l.67-.43a11.39,11.39,0,0,1,1.26-.77,45.49,45.49,0,0,0-4.17,3.53A38.71,38.71,0,0,0,358,379.83a54.61,54.61,0,0,0-2.64,6.77,59.1,59.1,0,0,0-1.53,5.73c-.35,1.66-.56,3-.7,3.95A7.94,7.94,0,0,1,352.87,397.74Z" style="fill:#263238"></path></g><g id="freepik--character-3--inject-5"><path d="M409.47,190.8h0a11,11,0,0,1-10.56-10.44l-.48-9.75s-9.08-.93-9.66-9.93-.11-29.77-.11-29.77h0a31.36,31.36,0,0,1,31.67,2.3l1.39,1L420.84,180A11,11,0,0,1,409.47,190.8Z" style="fill:#b78876"></path><path d="M398.41,170.48a21,21,0,0,0,11.57-4s-2.44,6.63-11.47,6.29Z" style="fill:#aa6550"></path><path d="M421.09,143.56c.15-.07,6.1-2.16,6.22,4s-6.09,5-6.1,4.85S421.09,143.56,421.09,143.56Z" style="fill:#b78876"></path><path d="M423,150s.11.08.3.16a1.14,1.14,0,0,0,.8,0,2.67,2.67,0,0,0,1.18-2.41,3.59,3.59,0,0,0-.33-1.54,1.25,1.25,0,0,0-.83-.8.54.54,0,0,0-.62.3c-.08.18,0,.3-.07.31s-.14-.1-.09-.36a.67.67,0,0,1,.23-.39.83.83,0,0,1,.59-.17,1.53,1.53,0,0,1,1.14.94,3.52,3.52,0,0,1,.41,1.71,2.78,2.78,0,0,1-1.51,2.69,1.14,1.14,0,0,1-1-.14C423.06,150.19,423,150.06,423,150Z" style="fill:#aa6550"></path><path d="M393.66,145.14a1.29,1.29,0,0,0,1.31,1.23,1.23,1.23,0,0,0,1.26-1.23,1.28,1.28,0,0,0-1.3-1.23A1.23,1.23,0,0,0,393.66,145.14Z" style="fill:#263238"></path><path d="M391,143.49c.17.16,1.11-.61,2.49-.68s2.44.57,2.58.39-.11-.37-.57-.67a3.5,3.5,0,0,0-2.07-.52,3.35,3.35,0,0,0-2,.75C391.08,143.11,391,143.42,391,143.49Z" style="fill:#263238"></path><path d="M407.18,144.45a1.29,1.29,0,0,0,1.31,1.23,1.22,1.22,0,0,0,1.26-1.23,1.28,1.28,0,0,0-1.3-1.23A1.23,1.23,0,0,0,407.18,144.45Z" style="fill:#263238"></path><path d="M404.65,143c.17.15,1.11-.62,2.49-.69s2.44.57,2.58.4-.11-.38-.57-.68a3.57,3.57,0,0,0-2.07-.52,3.42,3.42,0,0,0-2,.75C404.7,142.65,404.57,143,404.65,143Z" style="fill:#263238"></path><path d="M400.17,153.56a9.78,9.78,0,0,0-2.27-.28c-.36,0-.7-.07-.77-.31a1.77,1.77,0,0,1,.18-1.06l.91-2.75c1.25-3.91,2.13-7.11,2-7.16a47.36,47.36,0,0,0-2.55,7c-.3,1-.58,1.88-.86,2.76a2.09,2.09,0,0,0-.11,1.39.9.9,0,0,0,.61.49,2.24,2.24,0,0,0,.61.05A9.06,9.06,0,0,0,400.17,153.56Z" style="fill:#263238"></path><path d="M404,137.63c.16.37,1.53.12,3.16.23s3,.48,3.17.13c.09-.16-.16-.5-.71-.84a5.24,5.24,0,0,0-2.38-.7,5.35,5.35,0,0,0-2.44.42C404.23,137.14,403.94,137.45,404,137.63Z" style="fill:#263238"></path><path d="M391.33,139.46c.26.3,1.2-.08,2.34-.15s2.13.1,2.34-.24c.09-.17-.08-.48-.52-.75a3.39,3.39,0,0,0-3.77.31C391.33,139,391.21,139.31,391.33,139.46Z" style="fill:#263238"></path><path d="M384,125.45a3.29,3.29,0,0,1,1.07-3,2.36,2.36,0,0,1,3.07.06,2.74,2.74,0,0,1,2.19-3.46c1.46-.17,2.77.88,4.21,1.19a6.65,6.65,0,0,0,4.18-.71c1.31-.6,2.52-1.41,3.84-2a11.53,11.53,0,0,1,15.09,6,5.12,5.12,0,0,1,5.53,1.77,8.37,8.37,0,0,1,1.59,5.84,18.52,18.52,0,0,1-.82,4.1c0,.11,0,.23,0,.34.17,5-.09,10.81-2.2,11-3.68.25-3.17-6.74-3.17-6.74-4.61-1.51-3.28-8.37-4.46-9.33s-3.68-3.24-12.89,2.1a18.3,18.3,0,0,1-11.16,1.8l-.24,0h0l-.08,0a8.65,8.65,0,0,1-2.49-.9,4.8,4.8,0,0,1-2.11-2.12,2.64,2.64,0,0,1,.37-2.85A5.71,5.71,0,0,1,384,125.45Z" style="fill:#263238"></path><path d="M399.21,157.88a6.37,6.37,0,0,0,.89,1.54,2.13,2.13,0,0,0,1.53.78,1.87,1.87,0,0,0,1.54-.95,3,3,0,0,0,.35-1.82c-.06-.57-.35-1.24-.92-1.27a1.36,1.36,0,0,0-.68.18L399,157.7" style="fill:#aa6550"></path><path d="M400.53,160.27a4.64,4.64,0,0,0,1.57-.28,2.2,2.2,0,0,0,1.14-1.15,2.38,2.38,0,0,0-.06-2,2.12,2.12,0,0,0-.28-.43c-.13-.12-.1-.11-.23-.09s-.31.14-.47.21l-.47.23-1.67.75a5,5,0,0,1-1.59.57,6.09,6.09,0,0,1,1.43-.91c.45-.25,1-.54,1.61-.85l.47-.24a4.46,4.46,0,0,1,.53-.25.65.65,0,0,1,.44,0,.69.69,0,0,1,.34.24,2.46,2.46,0,0,1,.37.54,2.82,2.82,0,0,1,0,2.39,2.54,2.54,0,0,1-1.44,1.29,2.35,2.35,0,0,1-1.29.12C400.66,160.39,400.52,160.3,400.53,160.27Z" style="fill:#263238"></path><path d="M414.38,129.59a5.28,5.28,0,0,0-.05-1.09,4.26,4.26,0,0,0-1.54-2.46,5.76,5.76,0,0,0-4.13-1.12,17.65,17.65,0,0,0-5.2,1.45c-.91.35-1.8.69-2.69.94a13.83,13.83,0,0,1-2.62.45,14.19,14.19,0,0,1-4.47-.35,13.07,13.07,0,0,1-2.83-1,8.19,8.19,0,0,1-.73-.39c-.16-.1-.24-.15-.23-.16s.35.17,1,.46a15,15,0,0,0,2.84.94,14.5,14.5,0,0,0,4.4.29,14.2,14.2,0,0,0,2.57-.46c.87-.25,1.76-.58,2.66-.94a17.48,17.48,0,0,1,5.29-1.45,5.88,5.88,0,0,1,4.26,1.23,4.24,4.24,0,0,1,1.52,2.58A2.43,2.43,0,0,1,414.38,129.59Z" style="fill:#455a64"></path><path d="M422.18,144.45a1.8,1.8,0,0,1-.13-.19c-.07-.12-.18-.31-.31-.56a11.3,11.3,0,0,1-.83-2.2,11.93,11.93,0,0,1-.41-3.47,30.63,30.63,0,0,1,.58-4.22,8.26,8.26,0,0,0-.21-4.14,4.26,4.26,0,0,0-.94-1.53,3.19,3.19,0,0,0-1.34-.78,3,3,0,0,0-2.22.17,5.94,5.94,0,0,0-.67.52,1.8,1.8,0,0,1,.62-.61,3,3,0,0,1,2.32-.26,3.33,3.33,0,0,1,1.44.81,4.19,4.19,0,0,1,1,1.59,8.24,8.24,0,0,1,.24,4.27,35.18,35.18,0,0,0-.6,4.19,12.58,12.58,0,0,0,.35,3.42,14,14,0,0,0,.75,2.2A8.3,8.3,0,0,1,422.18,144.45Z" style="fill:#455a64"></path><path d="M415.21,128.82a2.63,2.63,0,0,1,0-.36c0-.27,0-.61,0-1a12.2,12.2,0,0,0-.61-3.72,6.86,6.86,0,0,0-1.33-2.21,4.68,4.68,0,0,0-2.5-1.47,6.16,6.16,0,0,0-3.21.3,15.23,15.23,0,0,0-3.15,1.63,26,26,0,0,1-3.11,1.82,10,10,0,0,1-3.26.83,10.43,10.43,0,0,1-3-.21,12.4,12.4,0,0,1-2.5-.88,10.2,10.2,0,0,1-3-2.32,6.27,6.27,0,0,1-.64-.83,3,3,0,0,1-.19-.31,2,2,0,0,1,.24.28,8.47,8.47,0,0,0,.66.79,10.4,10.4,0,0,0,3,2.22,11.64,11.64,0,0,0,2.46.83,10.31,10.31,0,0,0,3,.19,9.74,9.74,0,0,0,3.17-.83,27.32,27.32,0,0,0,3.08-1.8,14.73,14.73,0,0,1,3.2-1.65,6.28,6.28,0,0,1,3.36-.3,5,5,0,0,1,2.61,1.56,6.7,6.7,0,0,1,1.33,2.3,11.35,11.35,0,0,1,.54,3.78c0,.45,0,.8,0,1A2.19,2.19,0,0,1,415.21,128.82Z" style="fill:#455a64"></path><polygon points="401.29 468.67 414.1 342.07 382.76 339.65 383 466.56 401.29 468.67" style="fill:#b78876"></polygon><path d="M419.3,339.64l-4.57,32.08,55,47.72L458,433.11,396.26,391.9c-5-3.52-10.77-10.43-10.45-16.55L388,335.07Z" style="fill:#b78876"></path><path d="M455.55,431.77h0s-5,21.05-2.05,23.33l21.83-32.61-8.5-5.75-.53,1.38A29.15,29.15,0,0,1,455.55,431.77Z" style="fill:#7460e6"></path><g style="opacity:0.6000000000000001"><path d="M465.9,421.58a1.61,1.61,0,0,1,2.14.09,1.54,1.54,0,0,1-.08,2.12,1.68,1.68,0,0,1-2.26-.11,1.6,1.6,0,0,1,.33-2.2" style="fill:#fff"></path></g><g style="opacity:0.6000000000000001"><path d="M475.33,422.49l-2.7-1.68L452.71,452.7s-.34,1.88.79,2.4Z" style="fill:#fff"></path></g><path d="M455,432.18c.16.11.77-.64,1.81-1.08s2-.41,2-.6-1.05-.57-2.29,0S454.86,432.12,455,432.18Z" style="fill:#263238"></path><path d="M454.16,436.55c.13.14.86-.37,1.89-.46s1.86.23,2,.07-.74-.87-2-.73S454,436.45,454.16,436.55Z" style="fill:#263238"></path><path d="M457,441.23c.13-.12-.52-.87-1.66-1.05s-2,.34-1.91.5.87,0,1.81.16S456.83,441.38,457,441.23Z" style="fill:#263238"></path><path d="M455.18,431.77a3.81,3.81,0,0,0,1.08-1.64,8.83,8.83,0,0,0,.62-2.06,8.53,8.53,0,0,0,.13-1.27,2.51,2.51,0,0,0-.05-.75.84.84,0,0,0-.8-.64,1.05,1.05,0,0,0-.83.45,2.76,2.76,0,0,0-.33.67,7.46,7.46,0,0,0-.33,1.25,7.2,7.2,0,0,0,0,2.17,3.47,3.47,0,0,0,.68,1.85c.11,0-.15-.74-.21-1.9a8.08,8.08,0,0,1,.15-2,7.25,7.25,0,0,1,.34-1.13c.14-.4.34-.7.55-.69s.11,0,.16.16a2.24,2.24,0,0,1,0,.55,10.89,10.89,0,0,1-.54,3.18A13.29,13.29,0,0,0,455.18,431.77Z" style="fill:#263238"></path><path d="M455.54,431.71c.07,0-.29-.73-1.29-1.48a6.44,6.44,0,0,0-1.93-1,6.35,6.35,0,0,0-1.27-.24,1.61,1.61,0,0,0-1.52.49.91.91,0,0,0,0,1,2.59,2.59,0,0,0,.49.57,4.25,4.25,0,0,0,1.1.74,4.56,4.56,0,0,0,2.15.43c1.28-.07,1.91-.61,1.87-.66s-.73.24-1.87.19a4.62,4.62,0,0,1-1.88-.51,4.1,4.1,0,0,1-.92-.66c-.31-.29-.51-.6-.38-.71a1.09,1.09,0,0,1,.91-.21,6,6,0,0,1,1.16.18,6.84,6.84,0,0,1,1.84.78C455,431.21,455.46,431.78,455.54,431.71Z" style="fill:#263238"></path><path d="M387.79,351.8a2.05,2.05,0,0,1,0,.59c0,.44-.09,1-.15,1.69-.14,1.53-.34,3.62-.58,6.18s-.49,5.72-.6,9.17-.25,7.33,1.27,11a28.12,28.12,0,0,0,6.43,9.05,67,67,0,0,0,7,5.92c2.1,1.57,3.84,2.78,5,3.62l1.37,1a3,3,0,0,1,.46.37,2.12,2.12,0,0,1-.52-.28l-1.43-.9c-1.23-.8-3-2-5.14-3.49a62.86,62.86,0,0,1-7.12-5.88,28.14,28.14,0,0,1-6.57-9.2,17.93,17.93,0,0,1-1.27-5.75c-.1-1.9-.08-3.73,0-5.46.14-3.48.44-6.59.71-9.2s.55-4.71.75-6.17c.1-.68.18-1.23.24-1.67A2.39,2.39,0,0,1,387.79,351.8Z" style="fill:#aa6550"></path><path d="M415.94,373.09a19,19,0,0,0-3.45-.69,18.74,18.74,0,0,0-3.49.44,5,5,0,0,1,3.51-1A4.9,4.9,0,0,1,415.94,373.09Z" style="fill:#aa6550"></path><path d="M383,465h0s-20.78,6.1-21.27,9.82l39.15,2.73.76-10.23-1.46.23A29.08,29.08,0,0,1,383,465Z" style="fill:#7460e6"></path><g style="opacity:0.6000000000000001"><path d="M397,468.93a1.6,1.6,0,0,1,1,1.9,1.53,1.53,0,0,1-1.87,1,1.7,1.7,0,0,1-1-2,1.6,1.6,0,0,1,2.07-.81" style="fill:#fff"></path></g><g style="opacity:0.6000000000000001"><path d="M400.88,477.56l.11-3.18L363.41,473s-1.79.64-1.68,1.88Z" style="fill:#fff"></path></g><path d="M382.38,464.77c0,.19.94.35,1.84,1s1.34,1.51,1.52,1.45,0-1.19-1.13-2S382.35,464.59,382.38,464.77Z" style="fill:#263238"></path><path d="M378.15,466.18c-.06.18.75.57,1.34,1.42s.72,1.72.91,1.73.39-1.07-.36-2.12S378.17,466,378.15,466.18Z" style="fill:#263238"></path><path d="M375.48,470.93c.17.06.5-.88.08-2s-1.28-1.56-1.37-1.41.42.75.75,1.65S375.29,470.9,375.48,470.93Z" style="fill:#263238"></path><path d="M382.81,464.69a3.68,3.68,0,0,0,2,.13,9.2,9.2,0,0,0,2.1-.49,9,9,0,0,0,1.16-.52,2.29,2.29,0,0,0,.63-.42.84.84,0,0,0,.16-1,1.09,1.09,0,0,0-.81-.5,2.81,2.81,0,0,0-.74.05,7.34,7.34,0,0,0-1.25.34,6.84,6.84,0,0,0-1.89,1.06c-1,.78-1.33,1.47-1.27,1.51s.57-.5,1.54-1.13a7.92,7.92,0,0,1,1.82-.86,6.67,6.67,0,0,1,1.15-.27c.42-.08.77-.06.87.13s0,.1-.06.22a2,2,0,0,1-.46.31,10.64,10.64,0,0,1-1.08.52,11,11,0,0,1-1.94.59A14.88,14.88,0,0,0,382.81,464.69Z" style="fill:#263238"></path><path d="M383,465a3.16,3.16,0,0,0,.65-1.86,6.54,6.54,0,0,0-.12-2.16,6.17,6.17,0,0,0-.42-1.23,1.59,1.59,0,0,0-1.18-1.07.88.88,0,0,0-.85.49,2.88,2.88,0,0,0-.26.7,4.59,4.59,0,0,0-.09,1.32,4.53,4.53,0,0,0,.7,2.08c.69,1.07,1.47,1.36,1.49,1.29s-.57-.5-1.08-1.52a4.52,4.52,0,0,1-.5-1.89,4.07,4.07,0,0,1,.12-1.13c.09-.41.27-.73.42-.68s.51.35.64.69a6.44,6.44,0,0,1,.41,1.1,7,7,0,0,1,.25,2C383.19,464.24,382.94,464.94,383,465Z" style="fill:#263238"></path><polygon points="380.09 347.18 386.32 283.63 393.89 282.22 386.58 347.3 380.09 347.18" style="fill:#263238"></polygon><path d="M439.55,278.14s2.78,18.64.51,23.61-10.53,19.43-11.35,25.63l-2.15,30-40.15-5.8.17-4.3,2.6-66.17,31.15-11.61Z" style="fill:#263238"></path><path d="M390.24,300.46c.14,0-.59,10.6-1.63,23.64s-2,23.62-2.14,23.61.58-10.6,1.62-23.65S390.09,300.45,390.24,300.46Z" style="fill:#455a64"></path><path d="M418.15,317.86a4.26,4.26,0,0,1-1.12-.6,16.61,16.61,0,0,1-2.7-2.16,25.46,25.46,0,0,1-6-9.63,51.35,51.35,0,0,1-2.46-11.1c-.18-1.45-.3-2.62-.36-3.43a5.24,5.24,0,0,1-.05-1.26,6.88,6.88,0,0,1,.25,1.24c.14.91.31,2,.52,3.39a59.61,59.61,0,0,0,2.59,11,26.82,26.82,0,0,0,5.77,9.55A33.61,33.61,0,0,0,418.15,317.86Z" style="fill:#455a64"></path><path d="M421.22,172l17.41,14.35.92,91.82s-19-5.68-26.9-3.46-18,10.4-21.58,10.22A37.94,37.94,0,0,0,385,285l1.08-13.63s-3.59-11.22-1.79-19.48,6.52-34.75,7.22-47.09l7.86-22.48Z" style="fill:#7460e6"></path><path d="M411.47,253.39a4.25,4.25,0,0,1-.31,1.06,22.2,22.2,0,0,1-1.2,2.78,30,30,0,0,1-2.31,3.84,31.47,31.47,0,0,1-7.8,7.7A30.41,30.41,0,0,1,396,271a24,24,0,0,1-2.79,1.16,5.31,5.31,0,0,1-1.07.3c0-.09,1.46-.61,3.69-1.79a34,34,0,0,0,3.77-2.33,36,36,0,0,0,4.15-3.48,36.5,36.5,0,0,0,3.53-4.1,33.12,33.12,0,0,0,2.38-3.74C410.84,254.84,411.38,253.35,411.47,253.39Z" style="fill:#263238"></path><g style="opacity:0.30000000000000004"><path d="M412.28,202.85c-.5,11.26-.15,24.17,4.49,34.44,2.14,4.77,5.07,9.37,5.54,14.58.31,3.46-.5,6.9-1.3,10.28-.92,3.84-3,9.16-1.39,12.1a30.55,30.55,0,0,0,8.94-16.79c.81-4.52-.12-9.16-1.19-13.64-3.53-14.76-8.66-29.09-14.06-43.29"></path></g><path d="M429.62,180.86s6.48,1.15,9,5.46,10.42,49.07,10.42,49.07l-29.72.64-7-30.93S408.28,179.52,429.62,180.86Z" style="fill:#7460e6"></path><path d="M449.05,235.39a3.48,3.48,0,0,1-.56.05l-1.63.08-6.13.2-21.39.55h-.2l0-.2-3.7-16.83c-.88-4-1.73-7.93-2.53-11.58v0a23.3,23.3,0,0,1-.86-7.32,35.43,35.43,0,0,1,.79-6.69,20.64,20.64,0,0,1,2-5.67,15.31,15.31,0,0,1,3.25-4,11.92,11.92,0,0,1,6.61-3,7.66,7.66,0,0,1,1.14,0,4.91,4.91,0,0,1,.83.05l.67.12a16.85,16.85,0,0,0-2.62,0,12,12,0,0,0-6.42,3.12,15.37,15.37,0,0,0-3.13,4,20.55,20.55,0,0,0-1.9,5.59,35.26,35.26,0,0,0-.74,6.6,23,23,0,0,0,.86,7.16h0c.81,3.65,1.66,7.56,2.55,11.58,1.29,6,2.53,11.65,3.66,16.84l-.24-.19,21.39-.37,6.14-.06h1.63Z" style="fill:#263238"></path><path d="M412.1,198.45a87.47,87.47,0,0,1-9.45,1.06,87,87,0,0,1-9.49.55,88.87,88.87,0,0,1,9.45-1.07A85.41,85.41,0,0,1,412.1,198.45Z" style="fill:#fafafa"></path><path d="M440.4,192.93c.05.13-6.16,2.16-13.86,4.52s-14,4.16-14,4,6.16-2.16,13.86-4.52S440.36,192.79,440.4,192.93Z" style="fill:#fafafa"></path><path d="M416.33,223.87c0,.14-6.1.28-13.63.31s-13.63-.07-13.63-.22,6.1-.28,13.63-.31S416.33,223.72,416.33,223.87Z" style="fill:#fafafa"></path><path d="M447.53,226.5c0,.14-6.32,1.12-14.16,2.18s-14.2,1.8-14.22,1.66,6.32-1.12,14.15-2.18S447.51,226.36,447.53,226.5Z" style="fill:#fafafa"></path><path d="M423.58,181c-.12.11-1.74-1.51-4-3.14s-4.32-2.67-4.25-2.81a13.33,13.33,0,0,1,4.56,2.39A13.59,13.59,0,0,1,423.58,181Z" style="fill:#fafafa"></path><path d="M410.15,255.66a4.84,4.84,0,0,1-1,0c-.67,0-1.63-.08-2.81-.15-2.37-.15-5.64-.4-9.26-.7s-6.88-.6-9.24-.85c-1.18-.12-2.14-.23-2.79-.32a4.1,4.1,0,0,1-1-.18,3.82,3.82,0,0,1,1,0l2.81.15c2.37.16,5.64.4,9.25.7s6.87.61,9.24.85c1.18.12,2.13.23,2.79.32A3.43,3.43,0,0,1,410.15,255.66Z" style="fill:#fafafa"></path><path d="M426.17,250a108.66,108.66,0,0,1-14.7,3.37,108.66,108.66,0,0,1,14.7-3.37Z" style="fill:#fafafa"></path><path d="M420.81,272.82c0,.14-7.91,1.73-17.71,3.55s-17.79,3.18-17.81,3,7.9-1.72,17.71-3.54S420.78,272.68,420.81,272.82Z" style="fill:#fafafa"></path><path d="M446.16,235.45l2.52,18.13a14.89,14.89,0,0,1-3.22,11.5l-27,33.1s-2.7,12.6-4.93,15.49c0,0-7.11-9.84-6.74-16.52l5.32-5.25,15.15-35.36-3.29-20.61Z" style="fill:#b78876"></path></g><g id="freepik--character-1--inject-5"><path d="M206.85,441.46l-6.55-12.33-15.73,9.66,12,16.92L196,471.08c-7.7,2-8.85,5.83-8.85,5.83l16,0,14.53-28Z" style="fill:#455a64"></path><g style="opacity:0.6000000000000001"><polygon points="217.7 448.9 203.17 476.89 187.17 476.91 188.97 474.51 201.98 473.78 215.39 447.32 217.7 448.9" style="fill:#fff"></polygon></g><path d="M196.12,464c.12.16,1-.37,2.28-.33s2.14.55,2.27.39-.76-1.08-2.26-1.1S196,463.91,196.12,464Z" style="fill:#263238"></path><path d="M196.38,460.22c.16.12.87-.83,2.14-1.08s2.3.34,2.4.17-.13-.34-.58-.58a3,3,0,0,0-2-.28,3.06,3.06,0,0,0-1.7,1C196.36,459.86,196.3,460.18,196.38,460.22Z" style="fill:#263238"></path><path d="M196.27,455.33c.17.09.72-.84,1.83-1.22s2.12,0,2.2-.21-.16-.3-.6-.46a2.76,2.76,0,0,0-3.26,1.15C196.2,455,196.18,455.29,196.27,455.33Z" style="fill:#263238"></path><path d="M192,451.54c.19.06.64-.85,1.64-1.49s2-.74,2-.94-1.18-.46-2.39.36S191.79,451.52,192,451.54Z" style="fill:#263238"></path><g style="opacity:0.6000000000000001"><path d="M204.94,448.42a1.9,1.9,0,1,0,1.89-1.89A1.9,1.9,0,0,0,204.94,448.42Z" style="fill:#fff"></path></g><path d="M59.15,432.19l-7.28,21.14S27.93,453,26.2,456.8l37.9,14.6,12.41-32.58Z" style="fill:#455a64"></path><path d="M65.06,456.4a1.77,1.77,0,0,1,.42,2.33,1.7,1.7,0,0,1-2.3.43,1.87,1.87,0,0,1-.43-2.47,1.76,1.76,0,0,1,2.44-.18" style="fill:#e0e0e0"></path><g style="opacity:0.6000000000000001"><path d="M64.1,471.4l1.15-3.32L28.59,455.37s-2.1.09-2.39,1.43Z" style="fill:#fff"></path></g><path d="M51.29,452.87c-.07.2.89.67,1.61,1.68s.93,2.05,1.14,2,.36-1.27-.54-2.47S51.32,452.68,51.29,452.87Z" style="fill:#263238"></path><path d="M46.37,453c-.12.18.61.84,1,1.94s.2,2.05.4,2.12.76-1,.29-2.36S46.45,452.81,46.37,453Z" style="fill:#263238"></path><path d="M42,457.15c.16.11.82-.77.73-2s-.85-2.07-1-1.93.2.93.26,2S41.81,457.05,42,457.15Z" style="fill:#263238"></path><path d="M53.49,448.24c0,.21,1,.29,2.11.79s1.82,1.2,2,1.07-.4-1.16-1.69-1.74S53.45,448.05,53.49,448.24Z" style="fill:#263238"></path><polygon points="113.45 298.59 76.69 369.55 53.21 440 75.71 449.06 100.51 380.03 143.31 321.92 113.45 298.59" style="fill:#263238"></polygon><path d="M122.69,321c0,2.55,61.88,119.67,61.88,119.67l17.76-9.91-50-121.5L120.65,321" style="fill:#263238"></path><path d="M76.9,286c2-.79,7.51-2.86,3.9-4l-.16-.06c-3.58-1-6-3-6.3-4.1a1.41,1.41,0,0,1,2.32-1.14c.06.06.16.11.23.17a18.15,18.15,0,0,0,3.52,1.47,10,10,0,0,0,3.38.5c.94,0,1.78-.07,2.53-.13l38.85-31.53,20-4.94c1.53,9.27-2.07,20.53-10.17,25.28l-43.52,26h0a108.06,108.06,0,0,1-9.76,6.57c-4.88,2.65-5.14,2.22-5.36,1.6-.61-1.65,8.4-5,6-5.37S71.9,301.71,71.34,300c-.74-2.28,8.76-5.59,9.55-5.92s2.19-1.86,1.5-1.52c-1,.49-13.43,5.81-14.17,3.57-.42-1.24,1.91-1.72,1.91-1.72s10.22-3.89,9.83-4.94-6.47,1-8.47,1.87-3.2.25-2.87-.93C68.85,289.57,74.9,286.83,76.9,286Z" style="fill:#ffbe9d"></path><path d="M132,183.18c2.08-2,5.65-.27,7.4,2s3,5.3,5.66,6.47,6.12.16,8.35,2c3.08,2.56,1.35,8.49,4.68,10.71,1.32.88,3.07.85,4.48,1.58,3.33,1.72,3.29,6.41,2.77,10.12-.72,5.21-1.51,10.61-4.38,15s-8.47,7.49-13.44,5.8c-4.78-1.64-7.23-6.79-9.18-11.46l-8.07-19.34c-1.55-3.73-3.12-7.52-3.63-11.53s.17-8.34,2.72-11.48" style="fill:#263238"></path><path d="M133.37,178.73c1.52-.18,2.68,1.67,2.28,3.15a4.84,4.84,0,0,1-3.26,3,5,5,0,0,1-2.52.29,2.49,2.49,0,0,1-1.9-1.54,1.43,1.43,0,0,1,.69-1.9c1-.63,1.59-1.12,2.38-1.55,1.2-.67,1.13-.76,2.33-1.42" style="fill:#7460e6"></path><path d="M135.86,142.42c.06-2.13-1.91-3.78-3.9-4.56s-4.2-1.08-6-2.27c-1.57-1.06-2.62-2.71-3.95-4.05a13.15,13.15,0,0,0-22.12,6c-.76,3-.24,6.63,2.16,8.66,2.78,2.34,6.9,1.82,10.47,1.09s7.6-1.45,10.58.64c1.79,1.27,2.82,3.32,3.92,5.22s2.47,3.84,4.55,4.56,4.89-.52,5-2.72" style="fill:#263238"></path><path d="M135.72,143.59c-.24,1.79,1.06,3.4,2.35,4.66s2.74,2.6,3,4.39c.26,2.1-1.26,4.16-.82,6.22.28,1.31,1.3,2.31,1.92,3.5a7.49,7.49,0,0,1,.38,5.49c-.53,1.8-1.38,5.83-2.63,7.23a29.06,29.06,0,0,1-14,8.38,54.48,54.48,0,0,1-15.51.85c-4.25-.26-9.13-.07-12.67-5.91-1.83-3-2.74-7.05-3.72-10.45-.83-2.93-1.56-6.06-.69-9,.51-1.7,1.53-3.21,2-4.92.63-2.12.4-4.4.65-6.6a15.14,15.14,0,0,1,21.56-12" style="fill:#263238"></path><path d="M98,150.93c.4-6.09,4.46-13.56,10.53-12.9l19,4.83a3.58,3.58,0,0,1,3.19,3.63l-2.13,45.72.13,0s-4.32,12.9-16.85,9c-2.49-.78-3.62-3.5-4.11-6.3l-.13,0c0-.33,0-.64,0-1a30,30,0,0,1-.07-6.28h0c0-3.69,0-5.2,0-5.17S99.63,181.2,98,171C97.25,166,97.52,157.7,98,150.93Z" style="fill:#ffbe9d"></path><path d="M100.05,157.87a1.29,1.29,0,0,0,1.25,1.31,1.23,1.23,0,0,0,1.34-1.17,1.3,1.3,0,0,0-1.25-1.32A1.24,1.24,0,0,0,100.05,157.87Z" style="fill:#263238"></path><path d="M99.75,155.25c.16.17,1.15-.56,2.55-.56s2.43.71,2.58.54-.08-.38-.53-.71a3.63,3.63,0,0,0-2.07-.64,3.4,3.4,0,0,0-2,.65C99.82,154.86,99.67,155.17,99.75,155.25Z" style="fill:#263238"></path><path d="M114,157.87a1.29,1.29,0,0,0,1.25,1.31,1.25,1.25,0,0,0,1.35-1.17,1.32,1.32,0,0,0-1.25-1.32A1.26,1.26,0,0,0,114,157.87Z" style="fill:#263238"></path><path d="M113.53,155.54c.16.17,1.15-.56,2.55-.55s2.43.71,2.58.54-.08-.39-.53-.71a3.56,3.56,0,0,0-4.1,0C113.6,155.15,113.45,155.46,113.53,155.54Z" style="fill:#263238"></path><path d="M108.42,165.92a9.12,9.12,0,0,0-2.27-.41c-.36,0-.7-.11-.76-.36a1.81,1.81,0,0,1,.24-1.06c.34-.86.69-1.77,1.06-2.72a48.07,48.07,0,0,0,2.4-7.13c-.16-.05-1.48,3-3,6.92-.36,1-.7,1.87-1,2.74a2.06,2.06,0,0,0-.19,1.4.89.89,0,0,0,.59.53,2.91,2.91,0,0,0,.6.09A9.38,9.38,0,0,0,108.42,165.92Z" style="fill:#263238"></path><path d="M107.42,182.51a25.78,25.78,0,0,0,13.61-3.6s-3.32,7-13.48,6Z" style="fill:#eb996e"></path><path d="M109,169.3a2.52,2.52,0,0,1,2.26-.93,2.28,2.28,0,0,1,1.59.86,1.45,1.45,0,0,1,.11,1.67,1.7,1.7,0,0,1-1.84.46,5.3,5.3,0,0,1-1.79-1.07,1.77,1.77,0,0,1-.4-.42.47.47,0,0,1,0-.52" style="fill:#eb996e"></path><path d="M112.54,166.9c-.22,0-.23,1.51-1.53,2.59s-2.93.9-2.94,1.12.36.29,1,.31a3.81,3.81,0,0,0,2.46-.84,3.34,3.34,0,0,0,1.19-2.17C112.82,167.27,112.65,166.89,112.54,166.9Z" style="fill:#263238"></path><path d="M112.91,153.08c.13.38,1.53.21,3.18.41s3,.65,3.19.31c.1-.16-.13-.52-.67-.89a5.52,5.52,0,0,0-4.85-.55C113.15,152.6,112.85,152.9,112.91,153.08Z" style="fill:#263238"></path><path d="M100.28,151.19c.24.32,1.21,0,2.37,0s2.14.22,2.37-.12c.1-.16,0-.48-.48-.78a3.43,3.43,0,0,0-3.83.11C100.3,150.71,100.17,151,100.28,151.19Z" style="fill:#263238"></path><path d="M134.53,176.28a9,9,0,0,1-10.73-10c.32-2.5,1.66-5,.8-7.4-1.15-3.12-5.52-4.08-6.68-7.2-.68-1.81-.07-3.92-.84-5.7s-2.47-2.63-4.18-3.25a17.18,17.18,0,0,1-5-2.16c-1.43-1.11-2.33-3.22-1.4-4.78a96.36,96.36,0,0,1,22.2,5.39c1.65.62,3.4,1.37,4.38,2.84s1,3.57.9,5.44q-.65,13.69-1.28,27.37" style="fill:#263238"></path><path d="M133.9,179.78a1,1,0,0,0,.16-.11l.45-.34c.39-.31,1-.77,1.68-1.4a17.27,17.27,0,0,0,2.39-2.51,9.29,9.29,0,0,0,1.9-4.18,6.35,6.35,0,0,0-1.31-5.35,20.92,20.92,0,0,0-2.36-2,5.48,5.48,0,0,1-1.85-2.51c-.75-2.08-.42-4.47-.71-6.92a13.72,13.72,0,0,0-2.88-7,9.54,9.54,0,0,0-3-2.47,19.64,19.64,0,0,0-3.56-1.2,8.35,8.35,0,0,1-3.12-1.53,12.42,12.42,0,0,1-2.26-2.5c-1.28-1.81-2.22-3.74-3.43-5.35a11.69,11.69,0,0,0-2-2.13,7.66,7.66,0,0,0-2.37-1.29,5,5,0,0,0-4.51.45,4.13,4.13,0,0,0-1.6,3,3,3,0,0,0,.61,2.09,1.84,1.84,0,0,0,.41.4,1,1,0,0,0,.16.11s0-.06-.13-.15a2,2,0,0,1-.37-.41,3,3,0,0,1-.51-2,4,4,0,0,1,1.57-2.85,4.82,4.82,0,0,1,4.27-.35,7.26,7.26,0,0,1,2.26,1.26,11.65,11.65,0,0,1,1.92,2.08c1.18,1.58,2.1,3.51,3.39,5.37a12.65,12.65,0,0,0,2.34,2.59,8.61,8.61,0,0,0,3.26,1.62,18.29,18.29,0,0,1,3.48,1.18,9.11,9.11,0,0,1,2.87,2.35,13.41,13.41,0,0,1,2.79,6.77c.29,2.37,0,4.8.75,7a6,6,0,0,0,2,2.68,20.49,20.49,0,0,1,2.35,2,6.07,6.07,0,0,1,1.27,5.05,9.21,9.21,0,0,1-1.79,4.08,18.65,18.65,0,0,1-2.3,2.53c-.69.65-1.25,1.13-1.63,1.46A4.09,4.09,0,0,0,133.9,179.78Z" style="fill:#455a64"></path><path d="M106.35,200.3,95.41,319.63l56.16-7.09s-.51-111.29-6.64-116.91-13-12.12-13-12.12l-1.63-6-24,14.39Z" style="fill:#ebebeb"></path><path d="M131.21,184.66c.08.12-5.15,3.88-11.68,8.41s-11.89,8.1-12,8,5.15-3.88,11.68-8.41S131.13,184.54,131.21,184.66Z" style="fill:#263238"></path><path d="M140.57,189.14a12.44,12.44,0,0,0-18.6,4.13c-4.57,8.6-11.42,22.66-11.75,30.44-.51,11.74-5.11,107.2-5.11,107.2L174,337.55l-16.34-93.66S156.7,202,140.57,189.14Z" style="fill:#7460e6"></path><path d="M110.33,320.15a89.29,89.29,0,0,1-.39-9.59,85.38,85.38,0,0,1,.14-9.58,90.54,90.54,0,0,1,.38,9.58A84.45,84.45,0,0,1,110.33,320.15Z" style="fill:#fafafa"></path><path d="M114.22,317.94a57.77,57.77,0,0,1-.26-7.69,57.87,57.87,0,0,1,.26-7.7,55.9,55.9,0,0,1,.26,7.7A55.81,55.81,0,0,1,114.22,317.94Z" style="fill:#fafafa"></path><path d="M120.07,319.52a71.38,71.38,0,0,1-.38-8.48,67.07,67.07,0,0,1,.14-8.49,71,71,0,0,1,.38,8.48A67.17,67.17,0,0,1,120.07,319.52Z" style="fill:#fafafa"></path><path d="M126.57,320.14a76,76,0,0,1-1-8.94,77.4,77.4,0,0,1-.51-9,80.12,80.12,0,0,1,1,8.94A78.73,78.73,0,0,1,126.57,320.14Z" style="fill:#fafafa"></path><path d="M132.48,320.77a81.71,81.71,0,0,1-.89-9.41,86.28,86.28,0,0,1-.37-9.44,87.45,87.45,0,0,1,.89,9.41A89.34,89.34,0,0,1,132.48,320.77Z" style="fill:#fafafa"></path><path d="M138,320.49a7.6,7.6,0,0,1-.62-2.16,28.68,28.68,0,0,1-.56-5.38,29.33,29.33,0,0,1,.44-5.4,8.11,8.11,0,0,1,.57-2.17c.16,0-.55,3.38-.49,7.56S138.16,320.45,138,320.49Z" style="fill:#fafafa"></path><path d="M143.39,322.08a16.42,16.42,0,0,1-.54-3.06c-.25-1.9-.52-4.54-.7-7.46s-.24-5.57-.23-7.48a16.73,16.73,0,0,1,.15-3.11,22.05,22.05,0,0,1,.22,3.1c.08,1.91.2,4.55.38,7.46s.39,5.54.55,7.45A21.91,21.91,0,0,1,143.39,322.08Z" style="fill:#fafafa"></path><path d="M149.89,321.73a70.61,70.61,0,0,1-.86-8.63,71,71,0,0,1-.34-8.66,72.75,72.75,0,0,1,.86,8.63A73.47,73.47,0,0,1,149.89,321.73Z" style="fill:#fafafa"></path><path d="M160.46,321.7A97.48,97.48,0,0,1,157.6,312a100.28,100.28,0,0,1-2.37-9.83,95.54,95.54,0,0,1,2.87,9.69A99.31,99.31,0,0,1,160.46,321.7Z" style="fill:#fafafa"></path><path d="M167,321.09a12.72,12.72,0,0,1-.78-2.45c-.43-1.52-1-3.62-1.76-5.92s-1.44-4.36-2-5.86a13.92,13.92,0,0,1-.77-2.45,11.49,11.49,0,0,1,1.11,2.32c.61,1.47,1.39,3.52,2.12,5.83s1.28,4.44,1.62,6A12.16,12.16,0,0,1,167,321.09Z" style="fill:#fafafa"></path><path d="M167.05,295.81a3.88,3.88,0,0,1-.56.14l-1.62.31c-1.4.26-3.45.58-6,.93A183.61,183.61,0,0,1,139,298.78a187.16,187.16,0,0,1-20-.55c-2.54-.21-4.6-.43-6-.62l-1.63-.22a3.36,3.36,0,0,1-.56-.11,2.08,2.08,0,0,1,.57,0l1.64.13c1.42.13,3.48.29,6,.45,5.09.34,12.14.6,19.93.4s14.81-.83,19.88-1.44c2.53-.3,4.58-.56,6-.76l1.63-.22A2.12,2.12,0,0,1,167.05,295.81Z" style="fill:#fafafa"></path><path d="M166.08,290.93a2,2,0,0,1-.54.11l-1.57.21c-1.36.17-3.33.39-5.77.62-4.88.46-11.63.93-19.11,1.15s-14.25.11-19.15-.08c-2.45-.09-4.43-.19-5.79-.29l-1.58-.12a2.83,2.83,0,0,1-.54-.07,2,2,0,0,1,.55,0l1.58,0,5.79.13c4.9.09,11.66.12,19.13-.08s14.21-.63,19.09-1l5.78-.45,1.58-.11A3.27,3.27,0,0,1,166.08,290.93Z" style="fill:#fafafa"></path><path d="M164.82,286.78a2.05,2.05,0,0,1-.54.09l-1.55.18c-1.35.13-3.3.31-5.71.5-4.83.37-11.5.79-18.88,1.06s-14.07.34-18.91.31c-2.42,0-4.38,0-5.73-.08l-1.56-.06a3.18,3.18,0,0,1-.54,0,1.73,1.73,0,0,1,.54-.05l1.56,0,5.73-.09c4.83-.06,11.51-.19,18.89-.46s14-.63,18.87-.91l5.72-.34,1.56-.07A2.16,2.16,0,0,1,164.82,286.78Z" style="fill:#fafafa"></path><path d="M173.61,333.13c0,.15-13.89-1.35-31-3.34s-30.92-3.73-30.91-3.87,13.88,1.36,31,3.35S173.62,333,173.61,333.13Z" style="fill:#fafafa"></path><path d="M170.41,328c0,.14-13.52-1.14-30.16-2.86s-30.13-3.23-30.11-3.38,13.51,1.14,30.16,2.86S170.43,327.84,170.41,328Z" style="fill:#fafafa"></path><path d="M112,284.57a46.27,46.27,0,0,1-.26-7,46.38,46.38,0,0,1,.26-7,48,48,0,0,1,.26,7A47.89,47.89,0,0,1,112,284.57Z" style="fill:#fafafa"></path><path d="M117,284.24a60.4,60.4,0,0,1-.26-8,60.4,60.4,0,0,1,.26-8,62.52,62.52,0,0,1,.26,8A62.52,62.52,0,0,1,117,284.24Z" style="fill:#fafafa"></path><path d="M125.29,282.24c-.15,0,.23-3.22.13-7.17s-.6-7.14-.45-7.17a7.15,7.15,0,0,1,.51,2.06,37,37,0,0,1,.46,5.09,35.64,35.64,0,0,1-.24,5.11A7.2,7.2,0,0,1,125.29,282.24Z" style="fill:#fafafa"></path><path d="M132.73,281.57a45.57,45.57,0,0,1-.59-6.82,43.11,43.11,0,0,1-.07-6.85,47,47,0,0,1,.59,6.82A44.59,44.59,0,0,1,132.73,281.57Z" style="fill:#fafafa"></path><path d="M139.68,283.24a48.93,48.93,0,0,1-.73-7.16,51,51,0,0,1-.2-7.18,49.58,49.58,0,0,1,.72,7.15A50.36,50.36,0,0,1,139.68,283.24Z" style="fill:#fafafa"></path><path d="M147.37,282.56a44,44,0,0,1-1.07-6.63,44.41,44.41,0,0,1-.56-6.7,41.2,41.2,0,0,1,1.07,6.63A44.41,44.41,0,0,1,147.37,282.56Z" style="fill:#fafafa"></path><path d="M155,283.57a39.76,39.76,0,0,1-1.09-6.29,38.11,38.11,0,0,1-.57-6.37,39.75,39.75,0,0,1,1.09,6.3A39.34,39.34,0,0,1,155,283.57Z" style="fill:#fafafa"></path><path d="M159.71,282.9a47.33,47.33,0,0,1-1.1-6.8,46,46,0,0,1-.59-6.87,44.62,44.62,0,0,1,1.11,6.8A45.07,45.07,0,0,1,159.71,282.9Z" style="fill:#fafafa"></path><path d="M131.12,263.69a16.11,16.11,0,0,1-2.85,0c-1.76,0-4.19-.09-6.87-.1s-5.11,0-6.87.05a16.31,16.31,0,0,1-2.85-.05,14.25,14.25,0,0,1,2.83-.32c1.76-.12,4.2-.21,6.89-.2s5.13.12,6.88.26A14.25,14.25,0,0,1,131.12,263.69Z" style="fill:#fafafa"></path><path d="M127.35,260.38a54.44,54.44,0,0,1-7.41,0,54.85,54.85,0,0,1-7.39-.54,50.9,50.9,0,0,1,7.41,0A50.84,50.84,0,0,1,127.35,260.38Z" style="fill:#fafafa"></path><path d="M113.66,240.48a18.22,18.22,0,0,1-1.28-4.14,18.62,18.62,0,0,1-.77-4.27,35.73,35.73,0,0,1,2,8.41Z" style="fill:#fafafa"></path><path d="M118.35,239.6a24.47,24.47,0,0,1-2.6-12.19c.16,0,.29,2.8,1,6.16S118.49,239.54,118.35,239.6Z" style="fill:#fafafa"></path><path d="M122.74,241.91a42.69,42.69,0,0,1-1.56-6.48,42.12,42.12,0,0,1-1-6.58,42.8,42.8,0,0,1,1.55,6.48A43.12,43.12,0,0,1,122.74,241.91Z" style="fill:#fafafa"></path><path d="M121.35,222.67a10.55,10.55,0,0,1-4.2,1.91,10.8,10.8,0,0,1-4.6.45c0-.15,2-.3,4.46-1S121.28,222.53,121.35,222.67Z" style="fill:#fafafa"></path><path d="M117.48,219.29a5.33,5.33,0,0,1-2.09,1,5.41,5.41,0,0,1-2.26.48c0-.14.89-.57,2.09-1A5.17,5.17,0,0,1,117.48,219.29Z" style="fill:#fafafa"></path><path d="M150,215.81c-.15,0-.68-2.63-1.77-5.76s-2.3-5.55-2.16-5.62a19,19,0,0,1,2.65,5.45A18.78,18.78,0,0,1,150,215.81Z" style="fill:#fafafa"></path><path d="M152.61,216.09c-.16,0-.47-2.73-1.37-6s-2-5.81-1.86-5.88a24.73,24.73,0,0,1,3.23,11.89Z" style="fill:#fafafa"></path><path d="M153.76,220.8c0,.15-.87.39-2,.56a4.39,4.39,0,0,1-2.07,0,4.41,4.41,0,0,1,2-.56A4.33,4.33,0,0,1,153.76,220.8Z" style="fill:#fafafa"></path><path d="M155,224.31c.05.13-.56.49-1.37.8s-1.5.45-1.55.32.56-.5,1.37-.81S154.9,224.17,155,224.31Z" style="fill:#fafafa"></path><polygon points="85.2 252.9 73.16 227.41 88.31 224.07 100.84 251.79 85.2 252.9" style="fill:#263238"></polygon><path d="M79.53,225.82c-.38-.44-.73-1.19-.25-1.52a.73.73,0,0,1,1,.4,2.14,2.14,0,0,1,0,1.18l-.41.21" style="fill:#263238"></path><path d="M108.87,187.91a2.49,2.49,0,0,1,0,.26c0,.21-.07.46-.11.78a15.64,15.64,0,0,1-.86,2.87,42.79,42.79,0,0,1-2.16,4.21,19,19,0,0,0-2.12,5.8,25.69,25.69,0,0,0-.2,7.49,53.18,53.18,0,0,0,1.77,8.47c.82,3,1.85,6,2.69,9.24a40.27,40.27,0,0,1,1.52,10.25,22,22,0,0,1-.63,5.26,5,5,0,0,1-1.29,2.34,3.17,3.17,0,0,1-2.51.84,7.12,7.12,0,0,1-4.33-2.47,16.14,16.14,0,0,1-2.65-4,79.58,79.58,0,0,1-3-8.2,19.76,19.76,0,0,0-3.5-6.59,9.65,9.65,0,0,0-5.09-3.27,7.38,7.38,0,0,0-4.53.52,5.71,5.71,0,0,0-2.26,1.84c-.4.55-.5.9-.54.89s0-.09.09-.25a3.9,3.9,0,0,1,.36-.7,5.75,5.75,0,0,1,2.26-2,7.47,7.47,0,0,1,4.68-.62,9.82,9.82,0,0,1,5.3,3.31,19.92,19.92,0,0,1,3.64,6.68,78.55,78.55,0,0,0,3,8.14,15.78,15.78,0,0,0,2.57,3.83,6.63,6.63,0,0,0,4,2.3,2.67,2.67,0,0,0,2.12-.71,4.44,4.44,0,0,0,1.14-2.1,21.68,21.68,0,0,0,.61-5.12,40.48,40.48,0,0,0-1.49-10.12c-.83-3.22-1.85-6.27-2.66-9.24a52.34,52.34,0,0,1-1.74-8.55,26,26,0,0,1,.27-7.61,19.43,19.43,0,0,1,2.22-5.87,45.23,45.23,0,0,0,2.23-4.15,17.2,17.2,0,0,0,.94-2.82c.07-.3.12-.55.16-.75A.91.91,0,0,1,108.87,187.91Z" style="fill:#7460e6"></path><path d="M124.89,171.45a8.63,8.63,0,0,1-.06,1.55,21.63,21.63,0,0,1-.68,4.21,14,14,0,0,1-3.16,5.48,17.21,17.21,0,0,1-6.3,4.52,11.6,11.6,0,0,1-7.69.59,9,9,0,0,1-3.08-1.51A7,7,0,0,1,102,184a9.3,9.3,0,0,1-1-4.14,8.06,8.06,0,0,1,0-1.16,1.87,1.87,0,0,1,.05-.4,14.54,14.54,0,0,1,.13,1.55,9.77,9.77,0,0,0,1.17,4,7.58,7.58,0,0,0,4.82,3.5,11.23,11.23,0,0,0,7.36-.62,17.09,17.09,0,0,0,6.14-4.35,14,14,0,0,0,3.17-5.26,25.87,25.87,0,0,0,.83-4.13A8.93,8.93,0,0,1,124.89,171.45Z" style="fill:#7460e6"></path><path d="M119.34,204.61c.45,2.26,12.26,41.28,12.26,41.28s8.07,11.14,8.07,17.47h9.47a7.94,7.94,0,0,0,6.47-3.33h0a7.91,7.91,0,0,0,1.23-6.57l-14.45-57s-8.59-9.94-14.92-4.52A27.2,27.2,0,0,0,119.34,204.61Z" style="fill:#ebebeb"></path><path d="M76,235.8l18.52-4.52,19,9.94,19.27.69c6.47,1.67,9.25,12.22,7.63,18.7l-.69,2.75-37.32-16L81,245.48Z" style="fill:#ffbe9d"></path><path d="M89.93,237.8a2.92,2.92,0,0,1-1.7.82,14.43,14.43,0,0,1-4.54,0,37.2,37.2,0,0,1-6.29-.94,40.07,40.07,0,0,1,6.34.42,18.44,18.44,0,0,0,4.42.2C89.27,238.11,89.89,237.72,89.93,237.8Z" style="fill:#eb996e"></path><path d="M89.08,242.07a22.28,22.28,0,0,1-5.48-.39,22,22,0,0,1-5.35-1.25,43.68,43.68,0,0,1,5.43.73A43.51,43.51,0,0,1,89.08,242.07Z" style="fill:#eb996e"></path><path d="M148.49,254.4a28.53,28.53,0,0,0-.76-3.79,16.91,16.91,0,0,0-4.92-7.72,15.26,15.26,0,0,0-4.28-2.71,9.59,9.59,0,0,0-4-.76,5.85,5.85,0,0,0-2.66.73c-.56.34-.83.6-.86.57s0-.09.16-.22a4.33,4.33,0,0,1,.59-.52,5.58,5.58,0,0,1,2.74-.93,9.75,9.75,0,0,1,4.24.68,15.28,15.28,0,0,1,4.44,2.77,16.36,16.36,0,0,1,4.94,8,13.45,13.45,0,0,1,.44,2.83A3.84,3.84,0,0,1,148.49,254.4Z" style="fill:#263238"></path><path d="M145.86,235.72a25.81,25.81,0,0,0-7.74.73,25.94,25.94,0,0,0-7,3.5,6.86,6.86,0,0,1,1.73-1.56A17,17,0,0,1,138,236a16.76,16.76,0,0,1,5.59-.63A6.82,6.82,0,0,1,145.86,235.72Z" style="fill:#263238"></path></g><g id="freepik--character-2--inject-5"><path d="M233.74,153.13c-2.56-6.2-2.7-17,1.22-22.63s11.24-9.4,18-10.85a5.79,5.79,0,0,1,3.4,0,2.29,2.29,0,0,1,1.4,2.77A14.52,14.52,0,0,1,262,120.4a4.92,4.92,0,0,1,4.48,1,3,3,0,0,1,.11,4.25,5.16,5.16,0,0,1,6.51,6.87,16.34,16.34,0,0,1-3.76,5c-1.41,1.29-1.64,2.64-1.41,4.54" style="fill:#263238"></path><path d="M256.34,186.8c0-2.87.06-11.48.07-11.6s9.7-.45,10.84-10c.56-4.6.93-14.17,1.16-22.83a17.87,17.87,0,0,0-16-18.24l-.92-.1c-10-.49-16,7.72-16.19,17.71L234,179.93a11.19,11.19,0,0,0,10.66,11.58h0C251,191.8,256.34,186.8,256.34,186.8Z" style="fill:#ffbe9d"></path><path d="M256.44,175.07a22.28,22.28,0,0,1-12.05-4.88s1.91,6,11.51,6.14Z" style="fill:#eb996e"></path><path d="M266.31,148.74a1.36,1.36,0,0,1-1.46,1.23,1.31,1.31,0,0,1-1.27-1.38,1.37,1.37,0,0,1,1.46-1.23A1.31,1.31,0,0,1,266.31,148.74Z" style="fill:#263238"></path><path d="M265.86,146.85c-.19.16-1.14-.71-2.61-.87s-2.61.46-2.75.27.13-.39.64-.68a3.7,3.7,0,0,1,2.23-.43,3.63,3.63,0,0,1,2.05.91C265.83,146.44,266,146.78,265.86,146.85Z" style="fill:#263238"></path><path d="M251.58,147.82a1.38,1.38,0,0,1-1.46,1.23,1.31,1.31,0,0,1-1.28-1.37,1.38,1.38,0,0,1,1.46-1.24A1.32,1.32,0,0,1,251.58,147.82Z" style="fill:#263238"></path><path d="M251.43,145.57c-.19.16-1.14-.71-2.61-.87s-2.62.47-2.76.27.14-.39.65-.68a3.69,3.69,0,0,1,2.23-.43,3.63,3.63,0,0,1,2.05.91C251.4,145.16,251.52,145.5,251.43,145.57Z" style="fill:#263238"></path><path d="M255.57,157a10.14,10.14,0,0,1,2.43-.17c.38,0,.74,0,.83-.29a1.91,1.91,0,0,0-.13-1.13c-.26-.94-.52-1.93-.8-3-1.1-4.22-1.85-7.68-1.68-7.72s1.2,3.35,2.3,7.57l.75,3a2.22,2.22,0,0,1,0,1.49,1,1,0,0,1-.67.48,2.92,2.92,0,0,1-.65,0A9.73,9.73,0,0,1,255.57,157Z" style="fill:#263238"></path><path d="M251.15,157.56c.24,0,.07,1.6,1.31,2.88s2.95,1.28,2.94,1.5-.41.27-1.13.21a4,4,0,0,1-2.46-1.16,3.51,3.51,0,0,1-1-2.41C250.82,157.91,251,157.54,251.15,157.56Z" style="fill:#263238"></path><path d="M252.42,139.87c-.18.38-1.63,0-3.37.06s-3.18.34-3.37,0c-.08-.18.2-.53.8-.86a5.76,5.76,0,0,1,2.57-.6,5.67,5.67,0,0,1,2.57.59C252.22,139.34,252.51,139.69,252.42,139.87Z" style="fill:#263238"></path><path d="M265.78,142.55c-.3.31-1.27-.15-2.48-.29s-2.27,0-2.47-.4c-.08-.17.12-.49.6-.76a3.51,3.51,0,0,1,2.07-.33,3.42,3.42,0,0,1,1.91.89C265.8,142.05,265.91,142.4,265.78,142.55Z" style="fill:#263238"></path><path d="M235.37,148.91c-.15-.09-6.34-2.64-6.84,3.9s6.18,5.69,6.2,5.5S235.37,148.91,235.37,148.91Z" style="fill:#ffbe9d"></path><path d="M232.92,155.68s-.12.07-.32.14a1.11,1.11,0,0,1-.85,0,2.83,2.83,0,0,1-1.11-2.63,3.77,3.77,0,0,1,.44-1.61,1.35,1.35,0,0,1,.92-.81.58.58,0,0,1,.65.37c.08.19,0,.31.06.33s.15-.1.11-.38a.71.71,0,0,0-.22-.43.85.85,0,0,0-.62-.21,1.64,1.64,0,0,0-1.27.92,4,4,0,0,0-.53,1.8,3,3,0,0,0,1.45,3,1.22,1.22,0,0,0,1.05-.1C232.9,155.84,233,155.69,232.92,155.68Z" style="fill:#eb996e"></path><path d="M273.52,130.37c.12,8.54-10.59,11.28-14.81,6.19-2-2.36-3.6-5.24-6.41-6.45a7.81,7.81,0,0,0-6,.17l-.06,0c-2.8,1.19-4.63,4.19-5.28,7.17-.9,4.14-.51,7.89-1.9,11.66a2.62,2.62,0,0,1-.92,1.42c-.83.51-1.94-.08-2.53-.85a8.08,8.08,0,0,1-1.31-4.44,27,27,0,0,1,1.2-10.57,18.31,18.31,0,0,1,6-8.67,17.42,17.42,0,0,1,12.62-3.28A21.41,21.41,0,0,1,266,128.48a12.63,12.63,0,0,1,3.5,5.05" style="fill:#263238"></path><path d="M267,125.18a1.84,1.84,0,0,1,.9.1,4.55,4.55,0,0,1,2.07,1.37,5.57,5.57,0,0,1,1.37,3.42,6.28,6.28,0,0,1-1.58,4.21,8.26,8.26,0,0,1-3.75,2.49,11.11,11.11,0,0,1-3.63.52,14,14,0,0,1-2.44-.26,3,3,0,0,1-.87-.25c0-.09,1.27.19,3.31.15a11.51,11.51,0,0,0,3.48-.6,8,8,0,0,0,3.51-2.37,5.94,5.94,0,0,0,1.5-3.88,5.32,5.32,0,0,0-1.18-3.2,4.67,4.67,0,0,0-1.86-1.41A8.43,8.43,0,0,1,267,125.18Z" style="fill:#455a64"></path><path d="M262.81,121.85s.24-.06.61.15a2.1,2.1,0,0,1,.92,1.48,3.87,3.87,0,0,1-.69,2.46,10.81,10.81,0,0,1-2,2.37,11.33,11.33,0,0,1-4.9,2.61,5.58,5.58,0,0,1-2.29.21c0-.09.87-.14,2.2-.56a12.39,12.39,0,0,0,4.66-2.64,11.52,11.52,0,0,0,1.92-2.23,3.6,3.6,0,0,0,.73-2.18,2,2,0,0,0-.67-1.36C263,121.93,262.8,121.89,262.81,121.85Z" style="fill:#455a64"></path><path d="M314.26,433.07l7.28,21.14s23.94-.3,25.67,3.48l-40.49,15.59L294,440.81Z" style="fill:#7460e6"></path><path d="M308.35,457.28a1.77,1.77,0,0,0-.42,2.33,1.69,1.69,0,0,0,2.3.43,1.85,1.85,0,0,0,.43-2.46,1.75,1.75,0,0,0-2.44-.19" style="fill:#e0e0e0"></path><g style="opacity:0.6000000000000001"><path d="M306.72,473.28,305.57,470l39.25-13.71s2.1.09,2.39,1.44Z" style="fill:#fff"></path></g><path d="M322.12,453.76c.07.2-.89.67-1.61,1.68s-.93,2-1.14,2-.36-1.26.54-2.47S322.09,453.56,322.12,453.76Z" style="fill:#263238"></path><path d="M327,453.88c.12.17-.61.84-1,1.93s-.21,2.06-.41,2.12-.75-1-.29-2.35S327,453.69,327,453.88Z" style="fill:#263238"></path><path d="M331.41,458c-.16.11-.82-.77-.73-2s.85-2.06,1-1.93-.2.93-.26,2S331.6,457.93,331.41,458Z" style="fill:#263238"></path><path d="M319.92,449.12c0,.21-1,.29-2.11.8s-1.82,1.19-2,1.06.4-1.16,1.69-1.74S320,448.93,319.92,449.12Z" style="fill:#263238"></path><path d="M165.71,430.29l-.45.6-8.76,11.43-10.85,7.45,14.53,28,16,0s-1.16-3.85-8.86-5.84l-.5-15.37,13.82-15.18" style="fill:#7460e6"></path><g style="opacity:0.6000000000000001"><polygon points="145.65 449.76 160.18 477.76 176.18 477.77 174.38 475.37 161.37 474.64 147.96 448.18 145.65 449.76" style="fill:#fff"></polygon></g><path d="M167.23,464.9c-.12.16-1-.36-2.28-.33s-2.15.55-2.27.39.75-1.08,2.26-1.09S167.37,464.77,167.23,464.9Z" style="fill:#263238"></path><path d="M167,461.09c-.16.11-.87-.83-2.15-1.08s-2.29.33-2.4.16.13-.34.58-.58a2.93,2.93,0,0,1,2-.27,3,3,0,0,1,1.7,1C167,460.72,167.05,461,167,461.09Z" style="fill:#263238"></path><path d="M167.08,456.19c-.18.09-.72-.83-1.84-1.22s-2.11,0-2.19-.2.16-.31.6-.47a2.72,2.72,0,0,1,1.83,0,2.69,2.69,0,0,1,1.42,1.14C167.14,455.86,167.16,456.16,167.08,456.19Z" style="fill:#263238"></path><path d="M171.36,452.4c-.19.07-.64-.84-1.63-1.49s-2-.74-2-.94,1.19-.45,2.39.36S171.55,452.38,171.36,452.4Z" style="fill:#263238"></path><g style="opacity:0.6000000000000001"><path d="M158.41,449.29a1.9,1.9,0,1,1-1.9-1.9A1.9,1.9,0,0,1,158.41,449.29Z" style="fill:#fff"></path></g><polygon points="219 315.1 268.46 387.6 295.21 451 317.86 438.89 294.96 375.4 261.31 308.7 219 315.1" style="fill:#263238"></polygon><polygon points="198.57 308.7 190.31 367.07 156.54 440.71 176.66 452.4 219.6 379.41 243.44 308.7 198.57 308.7" style="fill:#263238"></polygon><path d="M176.66,452.4a2.28,2.28,0,0,1,.17-.35l.56-1,2.2-3.86L187.74,433c6.95-11.94,16.52-28.39,27.08-46.57l5.06-8.65,0,.05,14.85-44.72c1.89-5.6,3.4-10.11,4.46-13.25l1.23-3.56c.13-.39.24-.69.32-.92a1.36,1.36,0,0,1,.13-.31,1.6,1.6,0,0,1-.08.32l-.28.94c-.27.84-.65,2.05-1.14,3.59L235,333.25,220.34,378v0l0,0-5,8.66-27.21,46.49c-3.49,5.92-6.32,10.72-8.3,14.06-1,1.64-1.74,2.92-2.28,3.81l-.6,1A2.46,2.46,0,0,1,176.66,452.4Z" style="fill:#455a64"></path><path d="M196.5,313.48c6.83,4.1,75.13-.88,75.13-.88l1.11-16.52-8.28-19-8-84.1,1.06-6.84-25-16.54v7.29c-15,2.26-23.1,31.66-23.1,31.66l-.52,60.25-16.67,40.85Z" style="fill:#7460e6"></path><g style="opacity:0.30000000000000004"><path d="M198.57,294a78.24,78.24,0,0,0,15.1,14.6c3.1,2.33,6.78,4.54,10.61,3.93s6.47-3.65,8.9-6.51Q240,298,246.85,289.89a6.58,6.58,0,0,0,1.76-3.07,4.26,4.26,0,0,0-1.91-4,9.35,9.35,0,0,0-4.35-1.43c-9.61-1.13-19,3.63-28.65,3.72-3.31,0-8.68-.63-11.81.45l-3.32,8.4"></path></g><path d="M149.23,237.14c-4.55-4.71,8.31-27.52,22-38.78a17,17,0,0,1,23.72,2.14l59.52,69.44-11,16.14L231,302.24a9.76,9.76,0,0,1-14.59,1Z" style="fill:#455a64"></path><path d="M242.26,178.7s-16.07-8.51-40.34,30l4.3,5s20.27-35.63,33.67-31.32-3.44,51.56-3.44,51.56S263.07,186.85,242.26,178.7Z" style="fill:#263238"></path><path d="M245.09,287.29l18-12.93s-6-6.05-13.33-13.79-16.89-17.36-16.89-17.36,21.46-62.52,3.71-61.61c0,0-14.59.75-21.4,24.12-2.82,9.7-6.62,29.92-9.1,42.05-1.15,5.64,2.7,9.81,7.63,13Z" style="fill:#7460e6"></path><path d="M213.69,260.74a3,3,0,0,1-.65-.38,15.82,15.82,0,0,1-1.77-1.26,11.56,11.56,0,0,1-1.18-1c-.21-.2-.43-.4-.65-.62s-.42-.48-.64-.73a13.17,13.17,0,0,1-2.33-3.92,9.87,9.87,0,0,1-.54-5.49q.57-2.91,1.2-6.18C208,236.78,208.89,232,210,227s2.2-9.76,3.39-14,2.45-8.08,3.58-11.24,2.19-5.67,3-7.38c.37-.82.66-1.48.89-2a3.68,3.68,0,0,1,.34-.67,4,4,0,0,1-.25.71c-.2.5-.46,1.17-.8,2-.69,1.74-1.67,4.27-2.78,7.43s-2.3,7-3.47,11.25-2.28,9-3.34,14-2,9.79-2.86,14.14q-.66,3.26-1.24,6.17a9.49,9.49,0,0,0,.45,5.28A15.38,15.38,0,0,0,211.4,259c.7.62,1.3,1,1.7,1.32A6.43,6.43,0,0,1,213.69,260.74Z" style="fill:#263238"></path><path d="M231.52,243.21a3.59,3.59,0,0,1,.51.44l1.42,1.33,5.14,5,16.81,16.49,7.84,7.76.2.2-.21.17c-2.54,2.06-5,3.78-7.25,5.3l-5.82,4c-1.62,1.12-2.89,2-3.75,2.68l-1,.73a1.46,1.46,0,0,1-.36.24,2.87,2.87,0,0,1,.31-.3c.21-.18.52-.46.93-.8.83-.68,2.07-1.64,3.67-2.8s3.55-2.52,5.76-4.06,4.67-3.29,7.17-5.34v.36L255,266.79l-16.7-16.6c-2.09-2.1-3.79-3.83-5-5.07-.56-.57-1-1-1.35-1.4A2.89,2.89,0,0,1,231.52,243.21Z" style="fill:#263238"></path><path d="M243.4,212.12c.13,0-2.08,7.39-5,16.4s-5.3,16.28-5.44,16.23,2.08-7.38,5-16.39S243.26,212.08,243.4,212.12Z" style="fill:#263238"></path><path d="M232.63,244.39a13.72,13.72,0,0,1-1.69-.47,10.8,10.8,0,0,0-4.12-.18,10.68,10.68,0,0,0-3.88,1.44,15.89,15.89,0,0,1-1.46,1,3.93,3.93,0,0,1,1.25-1.27,9.35,9.35,0,0,1,8.32-1.3A3.94,3.94,0,0,1,232.63,244.39Z" style="fill:#263238"></path><path d="M256.65,185.92s-.55.6-1.33,1.76a13.05,13.05,0,0,0-2.09,5.35l-.09.65-.32-.58a33.1,33.1,0,0,0-5.49-7.38,34.31,34.31,0,0,0-9.93-7c-2.85-1.31-4.76-1.77-4.73-1.87a7.44,7.44,0,0,1,1.35.29,29.28,29.28,0,0,1,3.53,1.24,32.51,32.51,0,0,1,10.15,7,31.44,31.44,0,0,1,5.51,7.55l-.41.07a12.6,12.6,0,0,1,2.31-5.44,9.67,9.67,0,0,1,1.09-1.24C256.47,186,256.63,185.9,256.65,185.92Z" style="fill:#263238"></path><path d="M260,310.77a4.9,4.9,0,0,1-1.81-.88,12.69,12.69,0,0,1-3.47-3.41,13.06,13.06,0,0,1-2-4.44,5.06,5.06,0,0,1-.19-2,20,20,0,0,0,2.6,6.16A19.43,19.43,0,0,0,260,310.77Z" style="fill:#263238"></path><path d="M209.17,229.83l-.18-.15-.5-.45-1.9-1.81-6.9-6.69-10.19-10-2.94-2.89c-1-1-2-2-3.11-2.94a12.89,12.89,0,0,0-3.67-2.32,6.29,6.29,0,0,0-4.32-.13,11.47,11.47,0,0,0-3.8,2.33c-1.12,1-2.17,2-3.2,3.06a75.15,75.15,0,0,0-5.54,6.31,79,79,0,0,0-11.65,20.66c-.42,1-.7,1.89-.91,2.45-.09.25-.17.46-.23.64a.93.93,0,0,1-.1.21.76.76,0,0,1,.05-.23l.18-.65c.18-.58.43-1.42.82-2.49a69,69,0,0,1,3.8-8.84,74.78,74.78,0,0,1,7.67-12.05,69.33,69.33,0,0,1,5.55-6.36c1-1,2.08-2.1,3.22-3.1a12.06,12.06,0,0,1,4-2.44,6.78,6.78,0,0,1,4.66.15,13.18,13.18,0,0,1,3.82,2.41c1.13,1,2.13,2,3.13,3l2.93,2.9L200,220.47l6.79,6.81,1.82,1.87.47.5C209.13,229.76,209.18,229.82,209.17,229.83Z" style="fill:#263238"></path><path d="M192.85,198.55a30.91,30.91,0,0,0-8.8,0,30.46,30.46,0,0,0-8.26,3,8.08,8.08,0,0,1,2.17-1.48,20.45,20.45,0,0,1,12.34-2.22A8.62,8.62,0,0,1,192.85,198.55Z" style="fill:#263238"></path><path d="M267,285c-2.14-.26-1.63,1.07-.55,2.53-3.26,3.24-6.74,7.13-11.22,8.16l-8.42-9.58,12.43-8.51,1.75,1.49a32.22,32.22,0,0,0,5.22,2.52,9,9,0,0,0,2.9.59,13.33,13.33,0,0,0,3.69-.26c1.08-.34,2,.81,1.41,1.64S270.65,285.42,267,285Z" style="fill:#ffbe9d"></path><path d="M267.68,286.08a8.21,8.21,0,0,1-1.3,2.05,23.91,23.91,0,0,1-9.14,7.17,8.7,8.7,0,0,1-2.3.78,46,46,0,0,0,7-4.21A45.77,45.77,0,0,0,267.68,286.08Z" style="fill:#455a64"></path></g><g id="freepik--Light--inject-5"><rect x="328.01" y="45.82" width="7.59" height="202.64" style="fill:#455a64"></rect><circle cx="331.8" cy="52.83" r="23.47" style="fill:#7460e6"></circle><circle cx="331.8" cy="52.83" r="23.47" style="fill:#fff;opacity:0.30000000000000004"></circle><rect x="324.98" y="75.28" width="13.28" height="2.87" rx="1.38" style="fill:#455a64"></rect><polygon points="339.39 411.25 324.22 411.66 324.22 228.3 339.39 228.3 339.39 411.25" style="fill:#263238"></polygon><rect x="318.61" y="225.15" width="26.22" height="3.15" rx="1.52" style="fill:#263238"></rect></g></svg>
